<svg width="1080" height="1080" viewBox="0 0 1080 1080" fill="none" xmlns="http://www.w3.org/2000/svg">
<path fill-rule="evenodd" clip-rule="evenodd" d="M572.024 837.582C550.525 841.334 488.28 845.794 411.389 795.521C334.511 745.23 313.206 686.13 307.827 664.799C299.663 632.285 317.801 595.153 343.936 576.594C347.081 574.349 350.755 572.966 354.596 572.583C358.437 572.2 362.314 572.829 365.847 574.408C393.253 586.758 415.213 609.595 433.663 627.3C437.721 631.188 440.221 636.44 440.685 642.054C441.15 647.667 439.547 653.251 436.182 657.74L411.886 685.515C410.706 686.828 410.041 688.529 410.014 690.302C409.987 692.075 410.6 693.799 411.74 695.154C420.839 705.741 436.283 721.107 452.474 731.696C468.666 742.286 489.89 750.836 504.178 755.467C505.966 756.03 507.898 755.882 509.576 755.054C511.255 754.227 512.553 752.783 513.203 751.018L525.874 718.17C528.347 712.806 532.789 708.619 538.269 706.486C543.75 704.354 549.844 704.441 555.275 706.73C579.212 716.824 606.983 727.833 629.68 747.004C632.734 749.596 635.044 752.965 636.367 756.757C637.689 760.55 637.976 764.628 637.198 768.565C631.005 800.346 604.915 831.841 572.024 837.582Z" fill="#7446E8"/>
<path d="M209.49 684.055C219.41 678.744 229.877 674.547 240.889 671.465C244.022 572.986 328.394 498.3 426.436 498.3C432.583 498.3 438.647 498.585 444.628 499.154C437.032 475.914 433.175 451.618 433.2 427.171C433.194 387.335 443.492 348.173 463.097 313.484C482.701 278.795 510.945 249.756 545.091 229.182C554.067 224.143 550.01 199.757 540 196C343.381 196 184 355.223 184 551.647C183.968 597.003 192.62 641.947 209.49 684.055ZM896 551.647C896 703.367 800.912 832.893 667.021 884C688.648 854.305 700.267 818.51 700.2 781.787C700.202 758.715 695.619 735.872 686.715 714.583C677.811 693.295 664.764 673.984 648.331 657.773C653.718 658.128 659.141 658.318 664.6 658.342C704.475 658.348 743.676 648.06 778.399 628.475C813.123 608.89 842.191 580.674 862.785 546.562C868.208 537.093 892.662 540.118 896 551.647Z" fill="#7446E8"/>
</svg>
