<svg width="20" height="20" viewBox="0 0 20 20" fill="none" xmlns="http://www.w3.org/2000/svg">
<path fill-rule="evenodd" clip-rule="evenodd" d="M10.8996 18.6506C10.2956 18.7597 8.54718 18.8893 6.38734 17.4279C4.22782 15.966 3.62937 14.2479 3.47827 13.6279C3.24897 12.6827 3.75846 11.6033 4.49259 11.0638C4.58093 10.9985 4.68412 10.9583 4.79202 10.9472C4.89992 10.936 5.00883 10.9543 5.10806 11.0002C5.8779 11.3592 6.49474 12.0231 7.01301 12.5377C7.127 12.6508 7.19721 12.8035 7.21026 12.9666C7.22331 13.1298 7.17828 13.2921 7.08376 13.4226L6.40128 14.2301C6.36813 14.2682 6.34945 14.3177 6.3487 14.3692C6.34794 14.4207 6.36517 14.4709 6.39718 14.5103C6.65277 14.818 7.08659 15.2647 7.54142 15.5725C7.99624 15.8804 8.59242 16.1289 8.99377 16.2636C9.04399 16.2799 9.09824 16.2756 9.1454 16.2515C9.19255 16.2275 9.22901 16.1855 9.24728 16.1342L9.60319 15.1793C9.67266 15.0234 9.79744 14.9017 9.95139 14.8397C10.1053 14.7777 10.2765 14.7802 10.4291 14.8468C11.1015 15.1402 11.8816 15.4602 12.5191 16.0175C12.6049 16.0929 12.6698 16.1908 12.7069 16.3011C12.7441 16.4113 12.7521 16.5299 12.7303 16.6443C12.5563 17.5682 11.8235 18.4837 10.8996 18.6506Z" fill="white"/>
<path d="M0.716003 14.1876C0.994669 14.0333 1.28867 13.9113 1.598 13.8217C1.686 10.9589 4.056 8.7878 6.81 8.7878C6.98267 8.7878 7.153 8.79607 7.321 8.81261C7.10765 8.13704 6.99931 7.43075 7 6.72008C6.99983 5.56206 7.28911 4.42365 7.83979 3.41524C8.39047 2.40684 9.18385 1.56266 10.143 0.96459C10.54 0.716464 10.463 0 10 0C4.477 0 2.57074e-06 4.62859 2.57074e-06 10.3386C-0.000911836 11.6571 0.242122 12.9636 0.716003 14.1876ZM20 10.3386C20 14.749 17.329 18.5143 13.568 20C14.1755 19.1368 14.5019 18.0962 14.5 17.0287C14.5001 16.358 14.3713 15.6939 14.1212 15.0751C13.8711 14.4562 13.5046 13.8949 13.043 13.4236C13.1943 13.434 13.3467 13.4395 13.5 13.4402C14.6201 13.4403 15.7212 13.1413 16.6966 12.5719C17.672 12.0026 18.4885 11.1824 19.067 10.1907C19.307 9.78134 20 9.85991 20 10.3386Z" fill="white"/>
</svg>
